<svg xmlns="http://www.w3.org/2000/svg" xmlns:xlink="http://www.w3.org/1999/xlink" version="1.1" id="Icon" x="0px" y="0px" width="100px" height="100px" viewBox="0 0 100 100" enable-background="new 0 0 100 100" xml:space="preserve">
<path d="M63.08,33.979c-1.294,0-2.562,0.089-3.791,0.258c-0.1,0.014-0.186,0.076-0.229,0.166c-0.044,0.09-0.039,0.196,0.012,0.283  c1.439,2.441,2.265,5.152,2.265,8.012c0,7.441-5.48,13.959-13.497,17.124c-0.1,0.039-0.171,0.128-0.187,0.233  c-0.017,0.105,0.024,0.212,0.107,0.278c3.334,2.688,7.905,4.497,13.04,4.914c0.095,0.008,0.181,0.053,0.241,0.125  c0.06,0.072,0.088,0.166,0.078,0.26c-0.331,3.059-0.961,6.038-1.298,7.51c-0.033,0.144,0.027,0.293,0.152,0.372  c0.124,0.079,0.285,0.071,0.401-0.02c4.522-3.521,7.453-6.944,8.806-8.684c0.073-0.094,0.175-0.159,0.291-0.187  c8.432-2.025,14.536-7.952,14.536-14.95C84.008,41.006,74.638,33.979,63.08,33.979z"/>
<path d="M57.85,42.697C57.85,34.028,48.479,27,36.922,27c-11.559,0-20.93,7.028-20.93,15.697c0,6.997,6.106,12.927,14.538,14.952  c0.114,0.027,0.217,0.094,0.29,0.187c1.354,1.735,4.284,5.159,8.807,8.68c0.116,0.091,0.277,0.099,0.402,0.019  c0.124-0.079,0.186-0.228,0.152-0.372c-0.339-1.471-0.97-4.447-1.301-7.507c-0.01-0.094,0.019-0.188,0.078-0.26  c0.061-0.072,0.146-0.118,0.24-0.125C49.682,57.415,57.85,50.785,57.85,42.697z"/>
</svg>